<?xml version="1.0" encoding="UTF-8"?>
<svg id="Layer_1" data-name="Layer 1" xmlns="http://www.w3.org/2000/svg" viewBox="0 0 938.55 946.18">
  <defs>
    <style>
      .cls-1 {
        fill: #fff;
      }
    </style>
  </defs>
  <path class="cls-1" d="M938.5,820.08c0,21.99-14.56,42.98-39.94,57.59-22.64,13.01-52.14,20.18-83.07,20.18s-60.44-7.17-83.08-20.18c-25.35-14.59-39.48-51-39.93-71.68l-.05-2.55h85.08l.38,2.05c.12.65.23,1.4.35,2.24,1.35,9.35,3.88,26.77,37.27,27.01h.76c18.13,0,36.39-4.53,36.87-14.78.45-9.32-8.62-11.46-27.96-13.83-4.31-.52-9.54-.8-15.07-1.09h-.24c-5.26-.28-10.71-.56-16.62-1.1-27.87-2.53-53.63-11.99-72.53-26.62-.35-.27-.71-.55-1.06-.83-17.51-13.72-27.18-31.04-27.18-48.73,0-21.99,14.56-42.98,39.94-57.59,22.64-13.01,52.14-20.18,83.07-20.18s60.44,7.17,83.08,20.18c25.35,14.59,39.48,51,39.93,71.68l.05,2.55h-85.08l-.38-2.05c-.12-.65-.23-1.4-.35-2.24-1.35-9.35-3.88-26.77-37.27-27.01h-.76c-18.13,0-36.39,4.53-36.87,14.78-.45,9.32,8.62,11.46,27.96,13.83,4.34.52,9.6.8,15.17,1.1h.14c5.28.27,10.73.55,16.62,1.09,27.87,2.53,53.63,11.99,72.53,26.62.37.29.72.56,1.06.83,17.51,13.72,27.18,31.04,27.18,48.73ZM624.22,650.69l-35.39,92.62-35.32-92.46h-87.78l79.21,207.34-33.61,87.99h87.78l112.89-295.49h-87.78ZM164,602.85v55.03c-12.83-4.55-26.63-7.03-41-7.03-67.82,0-123,55.18-123,123s55.18,123,123,123,123-55.18,123-123v-171h-82ZM123,814.85c-22.61,0-41-18.39-41-41s18.39-41,41-41,41,18.39,41,41-18.39,41-41,41ZM375,650.85c-67.82,0-123,55.18-123,123s55.18,123,123,123c14.37,0,28.17-2.48,41-7.03v7.03h82v-123c0-67.82-55.18-123-123-123ZM370,814.85c-22.61,0-41-18.39-41-41s18.39-41,41-41,41,18.39,41,41-18.39,41-41,41Z"/>
</svg>